<svg width="142" height="152" viewBox="0 0 142 152" fill="none" xmlns="http://www.w3.org/2000/svg">
<g clip-path="url(#clip0_125_571)" filter="url(#filter0_i_125_571)">
<path d="M31.481 65.34C24.9051 67.3316 21.2 74.2788 23.2096 80.8493L33.1362 113.304C35.1459 119.875 42.1121 123.59 48.6881 121.598L81.17 111.761C87.746 109.769 91.451 102.822 89.4414 96.2515L79.5148 63.7966C77.5052 57.2262 70.5389 53.5109 63.963 55.5025L31.481 65.34ZM54.3755 92.2068C53.4031 91.6882 52.676 90.8056 52.3541 89.7532C52.0322 88.7007 52.1419 87.5647 52.6591 86.595C53.1763 85.6252 54.0585 84.9012 55.1118 84.5822C56.1651 84.2632 57.3031 84.3754 58.2755 84.894C59.2479 85.4126 59.9751 86.2952 60.297 87.3476C60.6189 88.4 60.5091 89.536 59.992 90.5058C59.4748 91.4755 58.5925 92.1995 57.5392 92.5185C56.4859 92.8375 55.3479 92.7254 54.3755 92.2068ZM42.2589 106.096C42.7761 105.126 43.6584 104.402 44.7117 104.083C45.765 103.764 46.903 103.876 47.8754 104.395C48.8478 104.913 49.5749 105.796 49.8968 106.848C50.2187 107.901 50.109 109.037 49.5918 110.007C49.0746 110.976 48.1923 111.7 47.139 112.019C46.0857 112.338 44.9477 112.226 43.9753 111.708C43.0029 111.189 42.2758 110.306 41.9539 109.254C41.632 108.202 41.7417 107.066 42.2589 106.096ZM79.5463 100.934C79.0291 101.904 78.1469 102.628 77.0936 102.947C76.0403 103.266 74.9023 103.154 73.9299 102.635C72.9575 102.117 72.2303 101.234 71.9084 100.182C71.5865 99.1295 71.6963 97.9935 72.2134 97.0237C72.7306 96.054 73.6129 95.33 74.6662 95.011C75.7195 94.692 76.8575 94.8041 77.8299 95.3227C78.8023 95.8413 79.5294 96.7239 79.8513 97.7763C80.1732 98.8287 80.0635 99.9648 79.5463 100.934ZM63.0592 67.0942C63.5764 66.1244 64.4587 65.4004 65.512 65.0814C66.5653 64.7624 67.7033 64.8746 68.6757 65.3932C69.6481 65.9118 70.3752 66.7944 70.6971 67.8468C71.019 68.8992 70.9093 70.0352 70.3921 71.005C69.8749 71.9747 68.9927 72.6987 67.9394 73.0177C66.8861 73.3367 65.748 73.2246 64.7756 72.706C63.8032 72.1874 63.0761 71.3048 62.7542 70.2524C62.4323 69.2 62.5421 68.0639 63.0592 67.0942ZM40.4376 80.077C39.9204 81.0468 39.0381 81.7708 37.9848 82.0898C36.9315 82.4088 35.7935 82.2966 34.8211 81.778C33.8487 81.2594 33.1216 80.3768 32.7997 79.3244C32.4778 78.272 32.5875 77.136 33.1047 76.1662C33.6219 75.1965 34.5042 74.4725 35.5575 74.1535C36.6108 73.8345 37.7488 73.9466 38.7212 74.4652C39.6936 74.9838 40.4207 75.8664 40.7426 76.9188C41.0645 77.9712 40.9548 79.1073 40.4376 80.077ZM98.3458 92.1751C103.739 95.0511 110.455 93.017 113.323 87.639L128.923 58.3878C131.791 53.0099 129.739 46.2991 124.346 43.4231L95.0146 27.78C89.6219 24.9039 82.9055 26.9381 80.0374 32.316L70.7504 49.7296C77.1925 50.8954 82.7654 55.5309 84.8036 62.1948L93.1211 89.3886L98.3458 92.1751ZM93.0138 58.0221C93.5309 57.0524 94.4132 56.3284 95.4665 56.0094C96.5198 55.6904 97.6578 55.8025 98.6302 56.3211C99.6026 56.8397 100.33 57.7223 100.652 58.7747C100.974 59.8271 100.864 60.9632 100.347 61.9329C99.8295 62.9026 98.9472 63.6266 97.8939 63.9456C96.8406 64.2646 95.7026 64.1525 94.7302 63.6339C93.7578 63.1153 93.0307 62.2327 92.7088 61.1803C92.3869 60.1279 92.4966 58.9919 93.0138 58.0221Z" fill="url(#paint0_linear_125_571)"/>
</g>
<defs>
<filter id="filter0_i_125_571" x="0" y="0" width="141.307" height="155.074" filterUnits="userSpaceOnUse" color-interpolation-filters="sRGB">
<feFlood flood-opacity="0" result="BackgroundImageFix"/>
<feBlend mode="normal" in="SourceGraphic" in2="BackgroundImageFix" result="shape"/>
<feColorMatrix in="SourceAlpha" type="matrix" values="0 0 0 0 0 0 0 0 0 0 0 0 0 0 0 0 0 0 127 0" result="hardAlpha"/>
<feOffset dy="4"/>
<feGaussianBlur stdDeviation="2"/>
<feComposite in2="hardAlpha" operator="arithmetic" k2="-1" k3="1"/>
<feColorMatrix type="matrix" values="0 0 0 0 0 0 0 0 0 0 0 0 0 0 0 0 0 0 0.25 0"/>
<feBlend mode="normal" in2="shape" result="effect1_innerShadow_125_571"/>
</filter>
<linearGradient id="paint0_linear_125_571" x1="96.0248" y1="28.3187" x2="45.0986" y2="123.808" gradientUnits="userSpaceOnUse">
<stop stop-color="#FFCA79"/>
<stop offset="1" stop-color="#F9A502"/>
</linearGradient>
<clipPath id="clip0_125_571">
<rect width="119.914" height="96.1945" fill="white" transform="translate(0 105.807) rotate(-61.9281)"/>
</clipPath>
</defs>
</svg>
