<svg width="80" height="71" viewBox="0 0 80 71" fill="none" xmlns="http://www.w3.org/2000/svg">
<g filter="url(#filter0_i_125_588)">
<path d="M55.5556 13.3125V13.4096C54.8194 13.3541 54.0833 13.3125 53.3333 13.3125H35.5556C33.2639 13.3125 31.0417 13.6037 28.9167 14.1445C28.9028 13.8672 28.8889 13.5898 28.8889 13.3125C28.8889 5.96289 34.8611 0 42.2222 0C49.5833 0 55.5556 5.96289 55.5556 13.3125ZM53.3333 17.75C53.8194 17.75 54.3056 17.7639 54.7778 17.7916C55.3611 17.8332 55.9444 17.8887 56.5278 17.9719C58.9722 15.1291 62.6111 13.3125 66.6667 13.3125H68.2639C69.7083 13.3125 70.7639 14.6715 70.4167 16.0721L68.5 23.7268C70.6945 25.7791 72.4861 28.2752 73.7083 31.0625H75.5556C78.0139 31.0625 80 33.0455 80 35.5V48.8125C80 51.267 78.0139 53.25 75.5556 53.25H71.1111C69.8472 54.9279 68.3472 56.4256 66.6667 57.6875V66.5625C66.6667 69.017 64.6806 71 62.2222 71H57.7778C55.3194 71 53.3333 69.017 53.3333 66.5625V62.125H35.5556V66.5625C35.5556 69.017 33.5694 71 31.1111 71H26.6667C24.2083 71 22.2222 69.017 22.2222 66.5625V57.6875C17.375 54.0543 14.0694 48.4936 13.4444 42.1562H9.44444C4.22222 42.1562 0 37.9406 0 32.7266C0 27.5125 4.22222 23.2969 9.44444 23.2969H10C11.8472 23.2969 13.3333 24.7807 13.3333 26.625C13.3333 28.4693 11.8472 29.9531 10 29.9531H9.44444C7.91667 29.9531 6.66667 31.2012 6.66667 32.7266C6.66667 34.252 7.91667 35.5 9.44444 35.5H13.7778C15.4583 27.2074 21.7917 20.5928 29.9306 18.4711C31.7222 17.9996 33.6111 17.75 35.5556 17.75H53.3333ZM62.2222 36.6094C62.2222 35.7267 61.871 34.8802 61.2459 34.256C60.6208 33.6319 59.7729 33.2812 58.8889 33.2812C58.0048 33.2812 57.157 33.6319 56.5319 34.256C55.9067 34.8802 55.5556 35.7267 55.5556 36.6094C55.5556 37.4921 55.9067 38.3386 56.5319 38.9627C57.157 39.5869 58.0048 39.9375 58.8889 39.9375C59.7729 39.9375 60.6208 39.5869 61.2459 38.9627C61.871 38.3386 62.2222 37.4921 62.2222 36.6094Z" fill="url(#paint0_linear_125_588)"/>
</g>
<defs>
<filter id="filter0_i_125_588" x="0" y="0" width="80" height="75" filterUnits="userSpaceOnUse" color-interpolation-filters="sRGB">
<feFlood flood-opacity="0" result="BackgroundImageFix"/>
<feBlend mode="normal" in="SourceGraphic" in2="BackgroundImageFix" result="shape"/>
<feColorMatrix in="SourceAlpha" type="matrix" values="0 0 0 0 0 0 0 0 0 0 0 0 0 0 0 0 0 0 127 0" result="hardAlpha"/>
<feOffset dy="4"/>
<feGaussianBlur stdDeviation="2"/>
<feComposite in2="hardAlpha" operator="arithmetic" k2="-1" k3="1"/>
<feColorMatrix type="matrix" values="0 0 0 0 0 0 0 0 0 0 0 0 0 0 0 0 0 0 0.25 0"/>
<feBlend mode="normal" in2="shape" result="effect1_innerShadow_125_588"/>
</filter>
<linearGradient id="paint0_linear_125_588" x1="40" y1="0" x2="40" y2="71" gradientUnits="userSpaceOnUse">
<stop stop-color="#FFCA79"/>
<stop offset="1" stop-color="#F9A502"/>
</linearGradient>
</defs>
</svg>
