<?xml version="1.0" encoding="utf-8"?>
<!DOCTYPE svg PUBLIC "-//W3C//DTD SVG 1.0//EN" "http://www.w3.org/TR/2001/REC-SVG-20010904/DTD/svg10.dtd">
<svg version="1.0" xmlns="http://www.w3.org/2000/svg" width="80px" height="80px" viewBox="0 0 80 80" preserveAspectRatio="xMidYMid meet">
 <g fill="#ffffff">
  <path d="M9.05 60.65 c0.05 -0.25 5 -5.10 10.95 -10.90 5.95 -5.75 10.90 -10.65 10.95 -10.85 0 -0.20 -0.95 -1.30 -2.20 -2.45 -1.25 -1.15 -2.25 -2.25 -2.25 -2.45 0 -0.45 7.85 -8.15 8.60 -8.45 0.25 -0.10 1.50 0.80 2.70 2 l2.20 2.15 6.15 -6.05 6.10 -6.10 9.15 -0.10 c5.05 0 9.30 0.05 9.40 0.15 0.10 0.15 -2.55 2.80 -5.90 5.95 -12.50 11.60 -15.65 14.65 -15.80 15.25 -0.10 0.30 1.25 1.80 2.95 3.35 1.65 1.55 2.95 3 2.90 3.30 -0.10 0.25 -2.10 2.45 -4.45 4.85 l-4.25 4.30 -3.15 -3.40 -3.20 -3.45 -1.55 1.75 c-0.80 0.95 -3.60 3.95 -6.20 6.65 l-4.70 4.85 -9.25 0 c-5.05 0 -9.15 -0.15 -9.15 -0.35z"/>
  <path d="M51.35 60.10 c-0.50 -0.50 -0.85 -1.15 -0.85 -1.40 0 -0.25 2.05 -2.50 4.50 -4.95 l4.50 -4.50 5.90 5.90 5.85 5.85 -9.55 0 c-8.60 0 -9.65 -0.10 -10.35 -0.90z"/>
  <path d="M15.25 23.75 l-6.50 -6.20 9.55 -0.05 9.50 0 1.70 1.75 1.70 1.75 -4.45 4.50 c-2.45 2.50 -4.60 4.50 -4.75 4.50 -0.15 -0.05 -3.15 -2.85 -6.75 -6.25z"/>
 </g>
</svg>